<?xml version="1.0" encoding="UTF-8" standalone="no"?>
<!DOCTYPE svg PUBLIC "-//W3C//DTD SVG 1.1//EN"
 "http://www.w3.org/Graphics/SVG/1.1/DTD/svg11.dtd">
<!-- Generated by graphviz version 2.43.0 (0)
 -->
<!-- Title: bdd Pages: 1 -->
<svg width="790pt" height="980pt"
 viewBox="0.00 0.00 790.00 980.00" xmlns="http://www.w3.org/2000/svg" xmlns:xlink="http://www.w3.org/1999/xlink">
<g id="graph0" class="graph" transform="scale(1 1) rotate(0) translate(4 976)">
<title>bdd</title>
<polygon fill="white" stroke="transparent" points="-4,4 -4,-976 786,-976 786,4 -4,4"/>
<!-- L&#45;1 -->
<g id="node1" class="node">
<title>L&#45;1</title>
<text text-anchor="middle" x="27" y="-950.3" font-family="Times,serif" font-size="14.00">ref</text>
</g>
<!-- L0 -->
<g id="node3" class="node">
<title>L0</title>
<text text-anchor="middle" x="27" y="-878.3" font-family="Times,serif" font-size="14.00">0</text>
</g>
<!-- L&#45;1&#45;&gt;L0 -->
<!-- ref&#45;28 -->
<g id="node2" class="node">
<title>ref&#45;28</title>
<ellipse fill="none" stroke="black" cx="536" cy="-954" rx="34.39" ry="18"/>
<text text-anchor="middle" x="536" y="-950.3" font-family="Times,serif" font-size="14.00">@&#45;28</text>
</g>
<!-- 28 -->
<g id="node4" class="node">
<title>28</title>
<ellipse fill="none" stroke="black" cx="536" cy="-882" rx="50.09" ry="18"/>
<text text-anchor="middle" x="536" y="-878.3" font-family="Times,serif" font-size="14.00">Pizza&#45;28</text>
</g>
<!-- ref&#45;28&#45;&gt;28 -->
<g id="edge48" class="edge">
<title>ref&#45;28&#45;&gt;28</title>
<path fill="none" stroke="black" stroke-dasharray="5,2" d="M536,-935.7C536,-927.98 536,-918.71 536,-910.11"/>
<polygon fill="black" stroke="black" points="539.5,-910.1 536,-900.1 532.5,-910.1 539.5,-910.1"/>
<text text-anchor="middle" x="529" y="-924.5" font-family="Times,serif" font-size="14.00">&#45;1</text>
</g>
<!-- L1 -->
<g id="node5" class="node">
<title>L1</title>
<text text-anchor="middle" x="27" y="-806.3" font-family="Times,serif" font-size="14.00">1</text>
</g>
<!-- L0&#45;&gt;L1 -->
<!-- 26 -->
<g id="node6" class="node">
<title>26</title>
<ellipse fill="none" stroke="black" cx="290" cy="-810" rx="62.29" ry="18"/>
<text text-anchor="middle" x="290" y="-806.3" font-family="Times,serif" font-size="14.00">Topping&#45;26</text>
</g>
<!-- 28&#45;&gt;26 -->
<g id="edge47" class="edge">
<title>28&#45;&gt;26</title>
<path fill="none" stroke="black" d="M498.1,-870.22C456.45,-858.36 389.27,-839.25 342.55,-825.95"/>
<polygon fill="black" stroke="black" points="343.48,-822.58 332.91,-823.21 341.57,-829.31 343.48,-822.58"/>
</g>
<!-- 1 -->
<g id="node33" class="node">
<title>1</title>
<ellipse fill="none" stroke="black" cx="411" cy="-18" rx="40.89" ry="18"/>
<text text-anchor="middle" x="411" y="-14.3" font-family="Times,serif" font-size="14.00">True&#45;1</text>
</g>
<!-- 28&#45;&gt;1 -->
<g id="edge46" class="edge">
<title>28&#45;&gt;1</title>
<path fill="none" stroke="black" stroke-dasharray="5,2" d="M582.56,-875.3C653.88,-863.67 782,-830.11 782,-739 782,-739 782,-739 782,-161 782,-113.79 763.48,-97.89 724,-72 681.55,-44.16 538.1,-28.94 461,-22.6"/>
<polygon fill="black" stroke="black" points="461.28,-19.11 451.03,-21.8 460.72,-26.09 461.28,-19.11"/>
<text text-anchor="middle" x="585.06" y="-864.1" font-family="Times,serif" font-size="14.00"> </text>
</g>
<!-- L2 -->
<g id="node7" class="node">
<title>L2</title>
<text text-anchor="middle" x="27" y="-734.3" font-family="Times,serif" font-size="14.00">2</text>
</g>
<!-- L1&#45;&gt;L2 -->
<!-- 24 -->
<g id="node8" class="node">
<title>24</title>
<ellipse fill="none" stroke="black" cx="290" cy="-738" rx="57.39" ry="18"/>
<text text-anchor="middle" x="290" y="-734.3" font-family="Times,serif" font-size="14.00">Salami&#45;24</text>
</g>
<!-- 26&#45;&gt;24 -->
<g id="edge45" class="edge">
<title>26&#45;&gt;24</title>
<path fill="none" stroke="black" d="M290,-791.7C290,-783.98 290,-774.71 290,-766.11"/>
<polygon fill="black" stroke="black" points="293.5,-766.1 290,-756.1 286.5,-766.1 293.5,-766.1"/>
</g>
<!-- 26&#45;&gt;1 -->
<g id="edge44" class="edge">
<title>26&#45;&gt;1</title>
<path fill="none" stroke="black" stroke-dasharray="5,2" d="M241.5,-798.54C180.03,-782.1 82,-743.84 82,-667 82,-667 82,-667 82,-161 82,-116.06 93.72,-98.52 130,-72 166.1,-45.61 290.53,-30.12 361.11,-23.25"/>
<polygon fill="black" stroke="black" points="361.49,-26.73 371.11,-22.3 360.83,-19.76 361.49,-26.73"/>
<text text-anchor="middle" x="239" y="-787.34" font-family="Times,serif" font-size="14.00"> </text>
</g>
<!-- L3 -->
<g id="node9" class="node">
<title>L3</title>
<text text-anchor="middle" x="27" y="-662.3" font-family="Times,serif" font-size="14.00">3</text>
</g>
<!-- L2&#45;&gt;L3 -->
<!-- 22 -->
<g id="node10" class="node">
<title>22</title>
<ellipse fill="none" stroke="black" cx="253" cy="-666" rx="47.39" ry="18"/>
<text text-anchor="middle" x="253" y="-662.3" font-family="Times,serif" font-size="14.00">Ham&#45;22</text>
</g>
<!-- 24&#45;&gt;22 -->
<g id="edge42" class="edge">
<title>24&#45;&gt;22</title>
<path fill="none" stroke="black" stroke-dasharray="5,2" d="M281.04,-720.05C276.73,-711.89 271.45,-701.91 266.65,-692.82"/>
<polygon fill="black" stroke="black" points="269.64,-690.99 261.87,-683.79 263.45,-694.27 269.64,-690.99"/>
<text text-anchor="middle" x="278.54" y="-708.85" font-family="Times,serif" font-size="14.00"> </text>
</g>
<!-- 18 -->
<g id="node14" class="node">
<title>18</title>
<ellipse fill="none" stroke="black" cx="290" cy="-522" rx="44.69" ry="18"/>
<text text-anchor="middle" x="290" y="-518.3" font-family="Times,serif" font-size="14.00">Size&#45;18</text>
</g>
<!-- 24&#45;&gt;18 -->
<g id="edge43" class="edge">
<title>24&#45;&gt;18</title>
<path fill="none" stroke="black" d="M297.89,-719.75C302.11,-709.58 306.86,-696.33 309,-684 317.14,-637.16 306.27,-582.04 297.93,-549.96"/>
<polygon fill="black" stroke="black" points="301.22,-548.74 295.23,-540.01 294.47,-550.58 301.22,-548.74"/>
</g>
<!-- L4 -->
<g id="node11" class="node">
<title>L4</title>
<text text-anchor="middle" x="27" y="-590.3" font-family="Times,serif" font-size="14.00">4</text>
</g>
<!-- L3&#45;&gt;L4 -->
<!-- 20 -->
<g id="node12" class="node">
<title>20</title>
<ellipse fill="none" stroke="black" cx="186" cy="-594" rx="76.09" ry="18"/>
<text text-anchor="middle" x="186" y="-590.3" font-family="Times,serif" font-size="14.00">Mozzarella&#45;20</text>
</g>
<!-- 22&#45;&gt;20 -->
<g id="edge40" class="edge">
<title>22&#45;&gt;20</title>
<path fill="none" stroke="black" stroke-dasharray="5,2" d="M237.46,-648.76C229.04,-639.97 218.47,-628.93 209.11,-619.14"/>
<polygon fill="black" stroke="black" points="211.36,-616.44 201.92,-611.63 206.31,-621.28 211.36,-616.44"/>
<text text-anchor="middle" x="234.96" y="-637.56" font-family="Times,serif" font-size="14.00"> </text>
</g>
<!-- 22&#45;&gt;18 -->
<g id="edge41" class="edge">
<title>22&#45;&gt;18</title>
<path fill="none" stroke="black" d="M259.35,-647.97C263.05,-637.66 267.64,-624.18 271,-612 276.63,-591.57 281.58,-568.11 285.01,-550.4"/>
<polygon fill="black" stroke="black" points="288.52,-550.68 286.95,-540.21 281.64,-549.38 288.52,-550.68"/>
</g>
<!-- L5 -->
<g id="node13" class="node">
<title>L5</title>
<text text-anchor="middle" x="27" y="-518.3" font-family="Times,serif" font-size="14.00">5</text>
</g>
<!-- L4&#45;&gt;L5 -->
<!-- 20&#45;&gt;18 -->
<g id="edge39" class="edge">
<title>20&#45;&gt;18</title>
<path fill="none" stroke="black" d="M210.12,-576.76C224.9,-566.81 243.96,-553.99 259.75,-543.36"/>
<polygon fill="black" stroke="black" points="261.79,-546.2 268.13,-537.72 257.88,-540.4 261.79,-546.2"/>
</g>
<!-- 20&#45;&gt;1 -->
<g id="edge38" class="edge">
<title>20&#45;&gt;1</title>
<path fill="none" stroke="black" stroke-dasharray="5,2" d="M172.32,-576.25C152.99,-550.82 120,-500.21 120,-451 120,-451 120,-451 120,-161 120,-115.19 134.99,-98.99 172,-72 227.37,-31.62 307.81,-21.08 359.77,-18.81"/>
<polygon fill="black" stroke="black" points="359.9,-22.31 369.77,-18.46 359.65,-15.31 359.9,-22.31"/>
<text text-anchor="middle" x="169.82" y="-565.05" font-family="Times,serif" font-size="14.00"> </text>
</g>
<!-- L6 -->
<g id="node15" class="node">
<title>L6</title>
<text text-anchor="middle" x="27" y="-446.3" font-family="Times,serif" font-size="14.00">6</text>
</g>
<!-- L5&#45;&gt;L6 -->
<!-- 16 -->
<g id="node16" class="node">
<title>16</title>
<ellipse fill="none" stroke="black" cx="353" cy="-450" rx="59.59" ry="18"/>
<text text-anchor="middle" x="353" y="-446.3" font-family="Times,serif" font-size="14.00">Normal&#45;16</text>
</g>
<!-- 18&#45;&gt;16 -->
<g id="edge37" class="edge">
<title>18&#45;&gt;16</title>
<path fill="none" stroke="black" d="M304.61,-504.76C312.53,-495.97 322.46,-484.93 331.27,-475.14"/>
<polygon fill="black" stroke="black" points="333.94,-477.41 338.03,-467.63 328.74,-472.72 333.94,-477.41"/>
</g>
<!-- 18&#45;&gt;1 -->
<g id="edge36" class="edge">
<title>18&#45;&gt;1</title>
<path fill="none" stroke="black" stroke-dasharray="5,2" d="M262.97,-507.44C224.35,-485.93 158,-440.09 158,-379 158,-379 158,-379 158,-161 158,-68.64 287.81,-35.73 361.47,-24.5"/>
<polygon fill="black" stroke="black" points="362.07,-27.95 371.47,-23.05 361.07,-21.02 362.07,-27.95"/>
<text text-anchor="middle" x="260.47" y="-496.24" font-family="Times,serif" font-size="14.00"> </text>
</g>
<!-- L7 -->
<g id="node17" class="node">
<title>L7</title>
<text text-anchor="middle" x="27" y="-374.3" font-family="Times,serif" font-size="14.00">7</text>
</g>
<!-- L6&#45;&gt;L7 -->
<!-- 8 -->
<g id="node18" class="node">
<title>8</title>
<ellipse fill="none" stroke="black" cx="353" cy="-378" rx="35.19" ry="18"/>
<text text-anchor="middle" x="353" y="-374.3" font-family="Times,serif" font-size="14.00">Big&#45;8</text>
</g>
<!-- 16&#45;&gt;8 -->
<g id="edge34" class="edge">
<title>16&#45;&gt;8</title>
<path fill="none" stroke="black" stroke-dasharray="5,2" d="M353,-431.7C353,-423.98 353,-414.71 353,-406.11"/>
<polygon fill="black" stroke="black" points="356.5,-406.1 353,-396.1 349.5,-406.1 356.5,-406.1"/>
<text text-anchor="middle" x="350.5" y="-420.5" font-family="Times,serif" font-size="14.00"> </text>
</g>
<!-- 14 -->
<g id="node19" class="node">
<title>14</title>
<ellipse fill="none" stroke="black" cx="631" cy="-378" rx="40.89" ry="18"/>
<text text-anchor="middle" x="631" y="-374.3" font-family="Times,serif" font-size="14.00">Big&#45;14</text>
</g>
<!-- 16&#45;&gt;14 -->
<g id="edge35" class="edge">
<title>16&#45;&gt;14</title>
<path fill="none" stroke="black" d="M397.36,-437.83C449.24,-424.77 534.62,-403.27 586.54,-390.19"/>
<polygon fill="black" stroke="black" points="587.62,-393.53 596.46,-387.7 585.91,-386.74 587.62,-393.53"/>
</g>
<!-- L8 -->
<g id="node20" class="node">
<title>L8</title>
<text text-anchor="middle" x="27" y="-302.3" font-family="Times,serif" font-size="14.00">8</text>
</g>
<!-- L7&#45;&gt;L8 -->
<!-- 6 -->
<g id="node21" class="node">
<title>6</title>
<ellipse fill="none" stroke="black" cx="314" cy="-306" rx="50.09" ry="18"/>
<text text-anchor="middle" x="314" y="-302.3" font-family="Times,serif" font-size="14.00">Dough&#45;6</text>
</g>
<!-- 8&#45;&gt;6 -->
<g id="edge21" class="edge">
<title>8&#45;&gt;6</title>
<path fill="none" stroke="black" d="M343.76,-360.41C339.16,-352.16 333.5,-342.01 328.36,-332.78"/>
<polygon fill="black" stroke="black" points="331.37,-330.99 323.45,-323.96 325.26,-334.4 331.37,-330.99"/>
</g>
<!-- 8&#45;&gt;1 -->
<g id="edge20" class="edge">
<title>8&#45;&gt;1</title>
<path fill="none" stroke="black" stroke-dasharray="5,2" d="M360.71,-360.36C372.07,-334.24 392,-281.79 392,-235 392,-235 392,-235 392,-161 392,-120.64 399.63,-74.39 405.22,-45.94"/>
<polygon fill="black" stroke="black" points="408.69,-46.45 407.25,-35.95 401.83,-45.06 408.69,-46.45"/>
<text text-anchor="middle" x="358.21" y="-349.16" font-family="Times,serif" font-size="14.00"> </text>
</g>
<!-- 13 -->
<g id="node22" class="node">
<title>13</title>
<ellipse fill="none" stroke="black" cx="631" cy="-306" rx="55.79" ry="18"/>
<text text-anchor="middle" x="631" y="-302.3" font-family="Times,serif" font-size="14.00">Dough&#45;13</text>
</g>
<!-- 14&#45;&gt;13 -->
<g id="edge32" class="edge">
<title>14&#45;&gt;13</title>
<path fill="none" stroke="black" stroke-dasharray="5,2" d="M631,-359.7C631,-351.98 631,-342.71 631,-334.11"/>
<polygon fill="black" stroke="black" points="634.5,-334.1 631,-324.1 627.5,-334.1 634.5,-334.1"/>
<text text-anchor="middle" x="628.5" y="-348.5" font-family="Times,serif" font-size="14.00"> </text>
</g>
<!-- 14&#45;&gt;1 -->
<g id="edge33" class="edge">
<title>14&#45;&gt;1</title>
<path fill="none" stroke="black" d="M653.6,-362.82C686.57,-340.18 744,-292.5 744,-235 744,-235 744,-235 744,-161 744,-39.99 555.65,-20.68 462.25,-18.54"/>
<polygon fill="black" stroke="black" points="462.22,-15.04 452.17,-18.37 462.1,-22.04 462.22,-15.04"/>
</g>
<!-- L9 -->
<g id="node23" class="node">
<title>L9</title>
<text text-anchor="middle" x="27" y="-230.3" font-family="Times,serif" font-size="14.00">9</text>
</g>
<!-- L8&#45;&gt;L9 -->
<!-- 4 -->
<g id="node24" class="node">
<title>4</title>
<ellipse fill="none" stroke="black" cx="256" cy="-234" rx="70.39" ry="18"/>
<text text-anchor="middle" x="256" y="-230.3" font-family="Times,serif" font-size="14.00">Neapolitan&#45;4</text>
</g>
<!-- 6&#45;&gt;4 -->
<g id="edge19" class="edge">
<title>6&#45;&gt;4</title>
<path fill="none" stroke="black" d="M300.25,-288.41C293.21,-279.91 284.48,-269.37 276.64,-259.91"/>
<polygon fill="black" stroke="black" points="279.12,-257.42 270.05,-251.96 273.73,-261.89 279.12,-257.42"/>
</g>
<!-- 6&#45;&gt;1 -->
<g id="edge18" class="edge">
<title>6&#45;&gt;1</title>
<path fill="none" stroke="black" stroke-dasharray="5,2" d="M321.44,-288.04C325.77,-277.74 331.13,-264.27 335,-252 359.77,-173.57 346.3,-147.9 378,-72 382.03,-62.35 387.71,-52.45 393.22,-43.85"/>
<polygon fill="black" stroke="black" points="396.2,-45.69 398.83,-35.43 390.38,-41.81 396.2,-45.69"/>
<text text-anchor="middle" x="318.94" y="-276.84" font-family="Times,serif" font-size="14.00"> </text>
</g>
<!-- 12 -->
<g id="node25" class="node">
<title>12</title>
<ellipse fill="none" stroke="black" cx="602" cy="-234" rx="76.09" ry="18"/>
<text text-anchor="middle" x="602" y="-230.3" font-family="Times,serif" font-size="14.00">Neapolitan&#45;12</text>
</g>
<!-- 13&#45;&gt;12 -->
<g id="edge31" class="edge">
<title>13&#45;&gt;12</title>
<path fill="none" stroke="black" d="M623.98,-288.05C620.72,-280.18 616.76,-270.62 613.1,-261.79"/>
<polygon fill="black" stroke="black" points="616.22,-260.17 609.16,-252.28 609.75,-262.85 616.22,-260.17"/>
</g>
<!-- 13&#45;&gt;1 -->
<g id="edge30" class="edge">
<title>13&#45;&gt;1</title>
<path fill="none" stroke="black" stroke-dasharray="5,2" d="M654.79,-289.64C666.88,-280.37 680.38,-267.37 687,-252 719.56,-176.35 709.86,-120.08 643,-72 589.49,-33.53 512.59,-22.42 462.23,-19.51"/>
<polygon fill="black" stroke="black" points="462.37,-16.02 452.21,-19.02 462.03,-23.01 462.37,-16.02"/>
<text text-anchor="middle" x="652.29" y="-278.44" font-family="Times,serif" font-size="14.00"> </text>
</g>
<!-- L10 -->
<g id="node26" class="node">
<title>L10</title>
<text text-anchor="middle" x="27" y="-158.3" font-family="Times,serif" font-size="14.00">10</text>
</g>
<!-- L9&#45;&gt;L10 -->
<!-- 2 -->
<g id="node27" class="node">
<title>2</title>
<ellipse fill="none" stroke="black" cx="264" cy="-162" rx="53.89" ry="18"/>
<text text-anchor="middle" x="264" y="-158.3" font-family="Times,serif" font-size="14.00">Sicilian&#45;2</text>
</g>
<!-- 4&#45;&gt;2 -->
<g id="edge16" class="edge">
<title>4&#45;&gt;2</title>
<path fill="none" stroke="black" stroke-dasharray="5,2" d="M252.06,-215.7C252.15,-207.98 252.98,-198.71 254.31,-190.11"/>
<polygon fill="black" stroke="black" points="257.78,-190.57 256.15,-180.1 250.9,-189.3 257.78,-190.57"/>
<text text-anchor="middle" x="245.06" y="-204.5" font-family="Times,serif" font-size="14.00">&#45;1</text>
</g>
<!-- 4&#45;&gt;2 -->
<g id="edge17" class="edge">
<title>4&#45;&gt;2</title>
<path fill="none" stroke="black" d="M263.81,-216.05C265.51,-208.35 266.82,-199.03 267.48,-190.36"/>
<polygon fill="black" stroke="black" points="270.98,-190.42 267.94,-180.28 263.99,-190.11 270.98,-190.42"/>
</g>
<!-- 10 -->
<g id="node28" class="node">
<title>10</title>
<ellipse fill="none" stroke="black" cx="618" cy="-162" rx="59.59" ry="18"/>
<text text-anchor="middle" x="618" y="-158.3" font-family="Times,serif" font-size="14.00">Sicilian&#45;10</text>
</g>
<!-- 12&#45;&gt;10 -->
<g id="edge28" class="edge">
<title>12&#45;&gt;10</title>
<path fill="none" stroke="black" stroke-dasharray="5,2" d="M605.96,-215.7C607.72,-207.98 609.84,-198.71 611.8,-190.11"/>
<polygon fill="black" stroke="black" points="615.27,-190.63 614.09,-180.1 608.45,-189.07 615.27,-190.63"/>
<text text-anchor="middle" x="603.46" y="-204.5" font-family="Times,serif" font-size="14.00"> </text>
</g>
<!-- 11 -->
<g id="node29" class="node">
<title>11</title>
<ellipse fill="none" stroke="black" cx="480" cy="-162" rx="59.59" ry="18"/>
<text text-anchor="middle" x="480" y="-158.3" font-family="Times,serif" font-size="14.00">Sicilian&#45;11</text>
</g>
<!-- 12&#45;&gt;11 -->
<g id="edge29" class="edge">
<title>12&#45;&gt;11</title>
<path fill="none" stroke="black" d="M574.32,-217.12C556.92,-207.13 534.3,-194.16 515.58,-183.41"/>
<polygon fill="black" stroke="black" points="517.15,-180.28 506.74,-178.34 513.67,-186.35 517.15,-180.28"/>
</g>
<!-- L11 -->
<g id="node30" class="node">
<title>L11</title>
<text text-anchor="middle" x="27" y="-86.3" font-family="Times,serif" font-size="14.00">11</text>
</g>
<!-- L10&#45;&gt;L11 -->
<!-- 2&#45;&gt;1 -->
<g id="edge14" class="edge">
<title>2&#45;&gt;1</title>
<path fill="none" stroke="black" stroke-dasharray="5,2" d="M270.12,-143.94C282.03,-125.26 306.53,-94.92 331,-72 344.39,-59.46 360.71,-47.1 375.24,-37.48"/>
<polygon fill="black" stroke="black" points="377.47,-40.2 384.01,-31.86 373.7,-34.31 377.47,-40.2"/>
<text text-anchor="middle" x="263.12" y="-132.74" font-family="Times,serif" font-size="14.00">&#45;1</text>
</g>
<!-- 2&#45;&gt;1 -->
<g id="edge15" class="edge">
<title>2&#45;&gt;1</title>
<path fill="none" stroke="black" d="M282.39,-144.95C299.14,-126.37 324.09,-95.33 349,-72 360.84,-60.92 374.96,-49.97 386.86,-40.94"/>
<polygon fill="black" stroke="black" points="389.21,-43.55 395.06,-34.72 384.98,-37.97 389.21,-43.55"/>
</g>
<!-- 9 -->
<g id="node31" class="node">
<title>9</title>
<ellipse fill="none" stroke="black" cx="537" cy="-90" rx="79.09" ry="18"/>
<text text-anchor="middle" x="537" y="-86.3" font-family="Times,serif" font-size="14.00">CheesyCrust&#45;9</text>
</g>
<!-- 10&#45;&gt;9 -->
<g id="edge25" class="edge">
<title>10&#45;&gt;9</title>
<path fill="none" stroke="black" d="M599.21,-144.76C588.73,-135.71 575.5,-124.27 563.93,-114.28"/>
<polygon fill="black" stroke="black" points="566.1,-111.52 556.25,-107.63 561.52,-116.82 566.1,-111.52"/>
</g>
<!-- 10&#45;&gt;1 -->
<g id="edge24" class="edge">
<title>10&#45;&gt;1</title>
<path fill="none" stroke="black" stroke-dasharray="5,2" d="M625.6,-143.95C633.02,-124.43 641.05,-92.51 625,-72 605.01,-46.46 517.72,-31.51 460.99,-24.32"/>
<polygon fill="black" stroke="black" points="461.12,-20.81 450.77,-23.07 460.27,-27.76 461.12,-20.81"/>
<text text-anchor="middle" x="623.1" y="-132.75" font-family="Times,serif" font-size="14.00"> </text>
</g>
<!-- 11&#45;&gt;9 -->
<g id="edge26" class="edge">
<title>11&#45;&gt;9</title>
<path fill="none" stroke="black" stroke-dasharray="5,2" d="M493.51,-144.41C500.43,-135.91 509.01,-125.37 516.71,-115.91"/>
<polygon fill="black" stroke="black" points="519.59,-117.92 523.19,-107.96 514.16,-113.5 519.59,-117.92"/>
<text text-anchor="middle" x="491.01" y="-133.21" font-family="Times,serif" font-size="14.00"> </text>
</g>
<!-- 11&#45;&gt;1 -->
<g id="edge27" class="edge">
<title>11&#45;&gt;1</title>
<path fill="none" stroke="black" d="M469.39,-144.12C463.13,-133.85 455.23,-120.38 449,-108 438.66,-87.46 428.51,-63.43 421.31,-45.53"/>
<polygon fill="black" stroke="black" points="424.47,-44.02 417.53,-36.02 417.97,-46.6 424.47,-44.02"/>
</g>
<!-- L12 -->
<g id="node32" class="node">
<title>L12</title>
<text text-anchor="middle" x="27" y="-14.3" font-family="Times,serif" font-size="14.00">12</text>
</g>
<!-- L11&#45;&gt;L12 -->
<!-- 9&#45;&gt;1 -->
<g id="edge22" class="edge">
<title>9&#45;&gt;1</title>
<path fill="none" stroke="black" stroke-dasharray="5,2" d="M503.65,-73.64C483.99,-63.4 459.45,-49.85 440.5,-38.8"/>
<polygon fill="black" stroke="black" points="442.08,-35.67 431.69,-33.61 438.52,-41.7 442.08,-35.67"/>
<text text-anchor="middle" x="496.65" y="-62.44" font-family="Times,serif" font-size="14.00">&#45;1</text>
</g>
<!-- 9&#45;&gt;1 -->
<g id="edge23" class="edge">
<title>9&#45;&gt;1</title>
<path fill="none" stroke="black" d="M513.58,-72.76C495.05,-61.79 469.03,-47.32 447.77,-36.15"/>
<polygon fill="black" stroke="black" points="449.17,-32.93 438.68,-31.43 445.95,-39.15 449.17,-32.93"/>
</g>
</g>
</svg>
