<?xml version="1.0" encoding="UTF-8" standalone="no"?>
<!DOCTYPE svg PUBLIC "-//W3C//DTD SVG 1.1//EN"
 "http://www.w3.org/Graphics/SVG/1.1/DTD/svg11.dtd">
<!-- Generated by graphviz version 2.43.0 (0)
 -->
<!-- Title: bdd Pages: 1 -->
<svg width="802pt" height="980pt"
 viewBox="0.00 0.00 802.00 980.00" xmlns="http://www.w3.org/2000/svg" xmlns:xlink="http://www.w3.org/1999/xlink">
<g id="graph0" class="graph" transform="scale(1 1) rotate(0) translate(4 976)">
<title>bdd</title>
<polygon fill="white" stroke="transparent" points="-4,4 -4,-976 798,-976 798,4 -4,4"/>
<!-- L&#45;1 -->
<g id="node1" class="node">
<title>L&#45;1</title>
<text text-anchor="middle" x="27" y="-950.3" font-family="Times,serif" font-size="14.00">ref</text>
</g>
<!-- L0 -->
<g id="node3" class="node">
<title>L0</title>
<text text-anchor="middle" x="27" y="-878.3" font-family="Times,serif" font-size="14.00">0</text>
</g>
<!-- L&#45;1&#45;&gt;L0 -->
<!-- ref&#45;105 -->
<g id="node2" class="node">
<title>ref&#45;105</title>
<ellipse fill="none" stroke="black" cx="546" cy="-954" rx="40.09" ry="18"/>
<text text-anchor="middle" x="546" y="-950.3" font-family="Times,serif" font-size="14.00">@&#45;105</text>
</g>
<!-- 105 -->
<g id="node4" class="node">
<title>105</title>
<ellipse fill="none" stroke="black" cx="546" cy="-882" rx="55.79" ry="18"/>
<text text-anchor="middle" x="546" y="-878.3" font-family="Times,serif" font-size="14.00">Pizza&#45;105</text>
</g>
<!-- ref&#45;105&#45;&gt;105 -->
<g id="edge48" class="edge">
<title>ref&#45;105&#45;&gt;105</title>
<path fill="none" stroke="black" stroke-dasharray="5,2" d="M546,-935.7C546,-927.98 546,-918.71 546,-910.11"/>
<polygon fill="black" stroke="black" points="549.5,-910.1 546,-900.1 542.5,-910.1 549.5,-910.1"/>
<text text-anchor="middle" x="539" y="-924.5" font-family="Times,serif" font-size="14.00">&#45;1</text>
</g>
<!-- L1 -->
<g id="node5" class="node">
<title>L1</title>
<text text-anchor="middle" x="27" y="-806.3" font-family="Times,serif" font-size="14.00">1</text>
</g>
<!-- L0&#45;&gt;L1 -->
<!-- 104 -->
<g id="node6" class="node">
<title>104</title>
<ellipse fill="none" stroke="black" cx="299" cy="-810" rx="68.49" ry="18"/>
<text text-anchor="middle" x="299" y="-806.3" font-family="Times,serif" font-size="14.00">Topping&#45;104</text>
</g>
<!-- 105&#45;&gt;104 -->
<g id="edge35" class="edge">
<title>105&#45;&gt;104</title>
<path fill="none" stroke="black" d="M505.49,-869.52C464.05,-857.78 399.41,-839.46 353.5,-826.45"/>
<polygon fill="black" stroke="black" points="354.29,-823.03 343.71,-823.67 352.38,-829.77 354.29,-823.03"/>
</g>
<!-- 1 -->
<g id="node33" class="node">
<title>1</title>
<ellipse fill="none" stroke="black" cx="453" cy="-18" rx="40.89" ry="18"/>
<text text-anchor="middle" x="453" y="-14.3" font-family="Times,serif" font-size="14.00">True&#45;1</text>
</g>
<!-- 105&#45;&gt;1 -->
<g id="edge34" class="edge">
<title>105&#45;&gt;1</title>
<path fill="none" stroke="black" stroke-dasharray="5,2" d="M597.39,-874.7C670.03,-862.6 794,-828.8 794,-739 794,-739 794,-739 794,-161 794,-113.79 775.25,-98.24 736,-72 698.52,-46.95 573.36,-30.89 502.68,-23.58"/>
<polygon fill="black" stroke="black" points="502.97,-20.1 492.67,-22.57 502.26,-27.06 502.97,-20.1"/>
<text text-anchor="middle" x="599.89" y="-863.5" font-family="Times,serif" font-size="14.00"> </text>
</g>
<!-- L2 -->
<g id="node7" class="node">
<title>L2</title>
<text text-anchor="middle" x="27" y="-734.3" font-family="Times,serif" font-size="14.00">2</text>
</g>
<!-- L1&#45;&gt;L2 -->
<!-- 103 -->
<g id="node8" class="node">
<title>103</title>
<ellipse fill="none" stroke="black" cx="299" cy="-738" rx="63.09" ry="18"/>
<text text-anchor="middle" x="299" y="-734.3" font-family="Times,serif" font-size="14.00">Salami&#45;103</text>
</g>
<!-- 104&#45;&gt;103 -->
<g id="edge33" class="edge">
<title>104&#45;&gt;103</title>
<path fill="none" stroke="black" d="M299,-791.7C299,-783.98 299,-774.71 299,-766.11"/>
<polygon fill="black" stroke="black" points="302.5,-766.1 299,-756.1 295.5,-766.1 302.5,-766.1"/>
</g>
<!-- 104&#45;&gt;1 -->
<g id="edge32" class="edge">
<title>104&#45;&gt;1</title>
<path fill="none" stroke="black" stroke-dasharray="5,2" d="M245.92,-798.6C181.67,-782.57 82,-745.11 82,-667 82,-667 82,-667 82,-161 82,-115.19 96.28,-97.99 134,-72 176.69,-42.58 323.84,-28.02 402.49,-22.2"/>
<polygon fill="black" stroke="black" points="402.93,-25.67 412.66,-21.46 402.43,-18.69 402.93,-25.67"/>
<text text-anchor="middle" x="243.42" y="-787.4" font-family="Times,serif" font-size="14.00"> </text>
</g>
<!-- L3 -->
<g id="node9" class="node">
<title>L3</title>
<text text-anchor="middle" x="27" y="-662.3" font-family="Times,serif" font-size="14.00">3</text>
</g>
<!-- L2&#45;&gt;L3 -->
<!-- 102 -->
<g id="node10" class="node">
<title>102</title>
<ellipse fill="none" stroke="black" cx="259" cy="-666" rx="53.09" ry="18"/>
<text text-anchor="middle" x="259" y="-662.3" font-family="Times,serif" font-size="14.00">Ham&#45;102</text>
</g>
<!-- 103&#45;&gt;102 -->
<g id="edge30" class="edge">
<title>103&#45;&gt;102</title>
<path fill="none" stroke="black" stroke-dasharray="5,2" d="M289.32,-720.05C284.6,-711.8 278.83,-701.7 273.59,-692.54"/>
<polygon fill="black" stroke="black" points="276.59,-690.73 268.59,-683.79 270.52,-694.21 276.59,-690.73"/>
<text text-anchor="middle" x="286.82" y="-708.85" font-family="Times,serif" font-size="14.00"> </text>
</g>
<!-- 100 -->
<g id="node14" class="node">
<title>100</title>
<ellipse fill="none" stroke="black" cx="302" cy="-522" rx="50.89" ry="18"/>
<text text-anchor="middle" x="302" y="-518.3" font-family="Times,serif" font-size="14.00">Size&#45;100</text>
</g>
<!-- 103&#45;&gt;100 -->
<g id="edge31" class="edge">
<title>103&#45;&gt;100</title>
<path fill="none" stroke="black" d="M308.13,-719.88C313.01,-709.76 318.51,-696.51 321,-684 330.29,-637.38 319.05,-582.19 310.33,-550.04"/>
<polygon fill="black" stroke="black" points="313.59,-548.73 307.5,-540.06 306.86,-550.64 313.59,-548.73"/>
</g>
<!-- L4 -->
<g id="node11" class="node">
<title>L4</title>
<text text-anchor="middle" x="27" y="-590.3" font-family="Times,serif" font-size="14.00">4</text>
</g>
<!-- L3&#45;&gt;L4 -->
<!-- 101 -->
<g id="node12" class="node">
<title>101</title>
<ellipse fill="none" stroke="black" cx="192" cy="-594" rx="81.79" ry="18"/>
<text text-anchor="middle" x="192" y="-590.3" font-family="Times,serif" font-size="14.00">Mozzarella&#45;101</text>
</g>
<!-- 102&#45;&gt;101 -->
<g id="edge28" class="edge">
<title>102&#45;&gt;101</title>
<path fill="none" stroke="black" stroke-dasharray="5,2" d="M243.46,-648.76C235.16,-640.1 224.78,-629.25 215.52,-619.57"/>
<polygon fill="black" stroke="black" points="217.83,-616.93 208.39,-612.12 212.78,-621.77 217.83,-616.93"/>
<text text-anchor="middle" x="240.96" y="-637.56" font-family="Times,serif" font-size="14.00"> </text>
</g>
<!-- 102&#45;&gt;100 -->
<g id="edge29" class="edge">
<title>102&#45;&gt;100</title>
<path fill="none" stroke="black" d="M267.74,-648.19C272.77,-637.95 278.9,-624.47 283,-612 289.69,-591.65 294.63,-567.88 297.79,-550.03"/>
<polygon fill="black" stroke="black" points="301.26,-550.46 299.49,-540.02 294.36,-549.29 301.26,-550.46"/>
</g>
<!-- L5 -->
<g id="node13" class="node">
<title>L5</title>
<text text-anchor="middle" x="27" y="-518.3" font-family="Times,serif" font-size="14.00">5</text>
</g>
<!-- L4&#45;&gt;L5 -->
<!-- 101&#45;&gt;100 -->
<g id="edge27" class="edge">
<title>101&#45;&gt;100</title>
<path fill="none" stroke="black" d="M217.51,-576.76C233.04,-566.88 253.02,-554.17 269.66,-543.58"/>
<polygon fill="black" stroke="black" points="271.95,-546.27 278.5,-537.95 268.19,-540.37 271.95,-546.27"/>
</g>
<!-- 101&#45;&gt;1 -->
<g id="edge26" class="edge">
<title>101&#45;&gt;1</title>
<path fill="none" stroke="black" stroke-dasharray="5,2" d="M176.73,-576.04C155.6,-550.74 120,-500.75 120,-451 120,-451 120,-451 120,-161 120,-39.99 308.35,-20.68 401.75,-18.54"/>
<polygon fill="black" stroke="black" points="401.9,-22.04 411.83,-18.37 401.78,-15.04 401.9,-22.04"/>
<text text-anchor="middle" x="174.23" y="-564.84" font-family="Times,serif" font-size="14.00"> </text>
</g>
<!-- L6 -->
<g id="node15" class="node">
<title>L6</title>
<text text-anchor="middle" x="27" y="-446.3" font-family="Times,serif" font-size="14.00">6</text>
</g>
<!-- L5&#45;&gt;L6 -->
<!-- 99 -->
<g id="node16" class="node">
<title>99</title>
<ellipse fill="none" stroke="black" cx="468" cy="-450" rx="59.59" ry="18"/>
<text text-anchor="middle" x="468" y="-446.3" font-family="Times,serif" font-size="14.00">Normal&#45;99</text>
</g>
<!-- 100&#45;&gt;99 -->
<g id="edge25" class="edge">
<title>100&#45;&gt;99</title>
<path fill="none" stroke="black" d="M333.61,-507.67C359.64,-496.69 396.79,-481.03 425.44,-468.95"/>
<polygon fill="black" stroke="black" points="426.94,-472.11 434.8,-465 424.22,-465.66 426.94,-472.11"/>
</g>
<!-- 100&#45;&gt;1 -->
<g id="edge24" class="edge">
<title>100&#45;&gt;1</title>
<path fill="none" stroke="black" stroke-dasharray="5,2" d="M271.46,-507.6C229.19,-486.73 158,-442.2 158,-379 158,-379 158,-379 158,-161 158,-53.92 317.76,-27.54 402.14,-21.08"/>
<polygon fill="black" stroke="black" points="402.56,-24.55 412.29,-20.37 402.07,-17.57 402.56,-24.55"/>
<text text-anchor="middle" x="268.96" y="-496.4" font-family="Times,serif" font-size="14.00"> </text>
</g>
<!-- L7 -->
<g id="node17" class="node">
<title>L7</title>
<text text-anchor="middle" x="27" y="-374.3" font-family="Times,serif" font-size="14.00">7</text>
</g>
<!-- L6&#45;&gt;L7 -->
<!-- 98 -->
<g id="node18" class="node">
<title>98</title>
<ellipse fill="none" stroke="black" cx="468" cy="-378" rx="40.89" ry="18"/>
<text text-anchor="middle" x="468" y="-374.3" font-family="Times,serif" font-size="14.00">Big&#45;98</text>
</g>
<!-- 99&#45;&gt;98 -->
<g id="edge23" class="edge">
<title>99&#45;&gt;98</title>
<path fill="none" stroke="black" d="M468,-431.7C468,-423.98 468,-414.71 468,-406.11"/>
<polygon fill="black" stroke="black" points="471.5,-406.1 468,-396.1 464.5,-406.1 471.5,-406.1"/>
</g>
<!-- 80 -->
<g id="node19" class="node">
<title>80</title>
<ellipse fill="none" stroke="black" cx="643" cy="-378" rx="40.89" ry="18"/>
<text text-anchor="middle" x="643" y="-374.3" font-family="Times,serif" font-size="14.00">Big&#45;80</text>
</g>
<!-- 99&#45;&gt;80 -->
<g id="edge22" class="edge">
<title>99&#45;&gt;80</title>
<path fill="none" stroke="black" stroke-dasharray="5,2" d="M502.57,-435.17C531.88,-423.45 573.86,-406.66 604.28,-394.49"/>
<polygon fill="black" stroke="black" points="605.74,-397.67 613.72,-390.71 603.14,-391.17 605.74,-397.67"/>
<text text-anchor="middle" x="500.07" y="-423.97" font-family="Times,serif" font-size="14.00"> </text>
</g>
<!-- L8 -->
<g id="node20" class="node">
<title>L8</title>
<text text-anchor="middle" x="27" y="-302.3" font-family="Times,serif" font-size="14.00">8</text>
</g>
<!-- L7&#45;&gt;L8 -->
<!-- 97 -->
<g id="node21" class="node">
<title>97</title>
<ellipse fill="none" stroke="black" cx="426" cy="-306" rx="55.79" ry="18"/>
<text text-anchor="middle" x="426" y="-302.3" font-family="Times,serif" font-size="14.00">Dough&#45;97</text>
</g>
<!-- 98&#45;&gt;97 -->
<g id="edge20" class="edge">
<title>98&#45;&gt;97</title>
<path fill="none" stroke="black" stroke-dasharray="5,2" d="M458.05,-360.41C453.1,-352.16 447.01,-342.01 441.47,-332.78"/>
<polygon fill="black" stroke="black" points="444.32,-330.73 436.17,-323.96 438.32,-334.33 444.32,-330.73"/>
<text text-anchor="middle" x="455.55" y="-349.21" font-family="Times,serif" font-size="14.00"> </text>
</g>
<!-- 98&#45;&gt;1 -->
<g id="edge21" class="edge">
<title>98&#45;&gt;1</title>
<path fill="none" stroke="black" d="M476.5,-359.99C488.77,-333.82 510,-281.79 510,-235 510,-235 510,-235 510,-161 510,-117.56 486.75,-71.68 469.94,-44.2"/>
<polygon fill="black" stroke="black" points="472.83,-42.21 464.53,-35.62 466.9,-45.94 472.83,-42.21"/>
</g>
<!-- 79 -->
<g id="node22" class="node">
<title>79</title>
<ellipse fill="none" stroke="black" cx="643" cy="-306" rx="55.79" ry="18"/>
<text text-anchor="middle" x="643" y="-302.3" font-family="Times,serif" font-size="14.00">Dough&#45;79</text>
</g>
<!-- 80&#45;&gt;79 -->
<g id="edge41" class="edge">
<title>80&#45;&gt;79</title>
<path fill="none" stroke="black" d="M643,-359.7C643,-351.98 643,-342.71 643,-334.11"/>
<polygon fill="black" stroke="black" points="646.5,-334.1 643,-324.1 639.5,-334.1 646.5,-334.1"/>
</g>
<!-- 80&#45;&gt;1 -->
<g id="edge40" class="edge">
<title>80&#45;&gt;1</title>
<path fill="none" stroke="black" stroke-dasharray="5,2" d="M665.6,-362.82C698.57,-340.18 756,-292.5 756,-235 756,-235 756,-235 756,-161 756,-51.02 590.31,-26.05 503.98,-20.5"/>
<polygon fill="black" stroke="black" points="504.05,-17 493.86,-19.91 503.65,-23.99 504.05,-17"/>
<text text-anchor="middle" x="663.1" y="-351.62" font-family="Times,serif" font-size="14.00"> </text>
</g>
<!-- L9 -->
<g id="node23" class="node">
<title>L9</title>
<text text-anchor="middle" x="27" y="-230.3" font-family="Times,serif" font-size="14.00">9</text>
</g>
<!-- L8&#45;&gt;L9 -->
<!-- 96 -->
<g id="node24" class="node">
<title>96</title>
<ellipse fill="none" stroke="black" cx="368" cy="-234" rx="76.09" ry="18"/>
<text text-anchor="middle" x="368" y="-230.3" font-family="Times,serif" font-size="14.00">Neapolitan&#45;96</text>
</g>
<!-- 97&#45;&gt;96 -->
<g id="edge19" class="edge">
<title>97&#45;&gt;96</title>
<path fill="none" stroke="black" d="M412.25,-288.41C405.21,-279.91 396.48,-269.37 388.64,-259.91"/>
<polygon fill="black" stroke="black" points="391.12,-257.42 382.05,-251.96 385.73,-261.89 391.12,-257.42"/>
</g>
<!-- 97&#45;&gt;1 -->
<g id="edge18" class="edge">
<title>97&#45;&gt;1</title>
<path fill="none" stroke="black" stroke-dasharray="5,2" d="M437.19,-288.14C443.16,-278.1 449.91,-264.85 453,-252 470.45,-179.3 462.7,-90.11 457.05,-46.15"/>
<polygon fill="black" stroke="black" points="460.48,-45.42 455.67,-35.99 453.54,-46.36 460.48,-45.42"/>
<text text-anchor="middle" x="434.69" y="-276.94" font-family="Times,serif" font-size="14.00"> </text>
</g>
<!-- 78 -->
<g id="node25" class="node">
<title>78</title>
<ellipse fill="none" stroke="black" cx="614" cy="-234" rx="76.09" ry="18"/>
<text text-anchor="middle" x="614" y="-230.3" font-family="Times,serif" font-size="14.00">Neapolitan&#45;78</text>
</g>
<!-- 79&#45;&gt;78 -->
<g id="edge39" class="edge">
<title>79&#45;&gt;78</title>
<path fill="none" stroke="black" d="M635.98,-288.05C632.72,-280.18 628.76,-270.62 625.1,-261.79"/>
<polygon fill="black" stroke="black" points="628.22,-260.17 621.16,-252.28 621.75,-262.85 628.22,-260.17"/>
</g>
<!-- 79&#45;&gt;1 -->
<g id="edge38" class="edge">
<title>79&#45;&gt;1</title>
<path fill="none" stroke="black" stroke-dasharray="5,2" d="M666.79,-289.64C678.88,-280.37 692.38,-267.37 699,-252 718.44,-206.84 705.09,-182.89 675,-144 629.07,-84.64 546.49,-49.05 496.03,-31.8"/>
<polygon fill="black" stroke="black" points="496.98,-28.43 486.38,-28.6 494.77,-35.07 496.98,-28.43"/>
<text text-anchor="middle" x="664.29" y="-278.44" font-family="Times,serif" font-size="14.00"> </text>
</g>
<!-- L10 -->
<g id="node26" class="node">
<title>L10</title>
<text text-anchor="middle" x="27" y="-158.3" font-family="Times,serif" font-size="14.00">10</text>
</g>
<!-- L9&#45;&gt;L10 -->
<!-- 94 -->
<g id="node28" class="node">
<title>94</title>
<ellipse fill="none" stroke="black" cx="384" cy="-162" rx="59.59" ry="18"/>
<text text-anchor="middle" x="384" y="-158.3" font-family="Times,serif" font-size="14.00">Sicilian&#45;94</text>
</g>
<!-- 96&#45;&gt;94 -->
<g id="edge16" class="edge">
<title>96&#45;&gt;94</title>
<path fill="none" stroke="black" stroke-dasharray="5,2" d="M371.96,-215.7C373.72,-207.98 375.84,-198.71 377.8,-190.11"/>
<polygon fill="black" stroke="black" points="381.27,-190.63 380.09,-180.1 374.45,-189.07 381.27,-190.63"/>
<text text-anchor="middle" x="369.46" y="-204.5" font-family="Times,serif" font-size="14.00"> </text>
</g>
<!-- 95 -->
<g id="node29" class="node">
<title>95</title>
<ellipse fill="none" stroke="black" cx="246" cy="-162" rx="59.59" ry="18"/>
<text text-anchor="middle" x="246" y="-158.3" font-family="Times,serif" font-size="14.00">Sicilian&#45;95</text>
</g>
<!-- 96&#45;&gt;95 -->
<g id="edge17" class="edge">
<title>96&#45;&gt;95</title>
<path fill="none" stroke="black" d="M340.32,-217.12C322.92,-207.13 300.3,-194.16 281.58,-183.41"/>
<polygon fill="black" stroke="black" points="283.15,-180.28 272.74,-178.34 279.67,-186.35 283.15,-180.28"/>
</g>
<!-- 64 -->
<g id="node27" class="node">
<title>64</title>
<ellipse fill="none" stroke="black" cx="606" cy="-162" rx="59.59" ry="18"/>
<text text-anchor="middle" x="606" y="-158.3" font-family="Times,serif" font-size="14.00">Sicilian&#45;64</text>
</g>
<!-- 78&#45;&gt;64 -->
<g id="edge36" class="edge">
<title>78&#45;&gt;64</title>
<path fill="none" stroke="black" stroke-dasharray="5,2" d="M606.19,-216.05C604.49,-208.35 603.18,-199.03 602.52,-190.36"/>
<polygon fill="black" stroke="black" points="606.01,-190.11 602.06,-180.28 599.02,-190.42 606.01,-190.11"/>
<text text-anchor="middle" x="599.19" y="-204.85" font-family="Times,serif" font-size="14.00">&#45;1</text>
</g>
<!-- 78&#45;&gt;64 -->
<g id="edge37" class="edge">
<title>78&#45;&gt;64</title>
<path fill="none" stroke="black" d="M617.94,-215.7C617.85,-207.98 617.02,-198.71 615.69,-190.11"/>
<polygon fill="black" stroke="black" points="619.1,-189.3 613.85,-180.1 612.22,-190.57 619.1,-189.3"/>
</g>
<!-- L11 -->
<g id="node30" class="node">
<title>L11</title>
<text text-anchor="middle" x="27" y="-86.3" font-family="Times,serif" font-size="14.00">11</text>
</g>
<!-- L10&#45;&gt;L11 -->
<!-- 64&#45;&gt;1 -->
<g id="edge14" class="edge">
<title>64&#45;&gt;1</title>
<path fill="none" stroke="black" stroke-dasharray="5,2" d="M586.1,-144.73C568.01,-126.21 541.06,-95.5 515,-72 502.87,-61.06 488.58,-50.07 476.66,-40.96"/>
<polygon fill="black" stroke="black" points="478.53,-37.99 468.46,-34.69 474.27,-43.54 478.53,-37.99"/>
<text text-anchor="middle" x="579.1" y="-133.53" font-family="Times,serif" font-size="14.00">&#45;1</text>
</g>
<!-- 64&#45;&gt;1 -->
<g id="edge15" class="edge">
<title>64&#45;&gt;1</title>
<path fill="none" stroke="black" d="M598.63,-144.06C585.37,-125.48 558.74,-95.22 533,-72 519.28,-59.63 502.81,-47.2 488.26,-37.5"/>
<polygon fill="black" stroke="black" points="489.79,-34.32 479.49,-31.83 485.99,-40.2 489.79,-34.32"/>
</g>
<!-- 91 -->
<g id="node31" class="node">
<title>91</title>
<ellipse fill="none" stroke="black" cx="321" cy="-90" rx="85.29" ry="18"/>
<text text-anchor="middle" x="321" y="-86.3" font-family="Times,serif" font-size="14.00">CheesyCrust&#45;91</text>
</g>
<!-- 94&#45;&gt;91 -->
<g id="edge45" class="edge">
<title>94&#45;&gt;91</title>
<path fill="none" stroke="black" d="M369.07,-144.41C361.34,-135.82 351.74,-125.16 343.16,-115.63"/>
<polygon fill="black" stroke="black" points="345.55,-113.05 336.26,-107.96 340.35,-117.73 345.55,-113.05"/>
</g>
<!-- 94&#45;&gt;1 -->
<g id="edge44" class="edge">
<title>94&#45;&gt;1</title>
<path fill="none" stroke="black" stroke-dasharray="5,2" d="M394.61,-144.12C400.87,-133.85 408.77,-120.38 415,-108 425.34,-87.46 435.49,-63.43 442.69,-45.53"/>
<polygon fill="black" stroke="black" points="446.03,-46.6 446.47,-36.02 439.53,-44.02 446.03,-46.6"/>
<text text-anchor="middle" x="392.11" y="-132.92" font-family="Times,serif" font-size="14.00"> </text>
</g>
<!-- 95&#45;&gt;91 -->
<g id="edge46" class="edge">
<title>95&#45;&gt;91</title>
<path fill="none" stroke="black" stroke-dasharray="5,2" d="M263.4,-144.76C273.01,-135.79 285.12,-124.49 295.75,-114.56"/>
<polygon fill="black" stroke="black" points="298.26,-117.02 303.18,-107.63 293.48,-111.9 298.26,-117.02"/>
<text text-anchor="middle" x="260.9" y="-133.56" font-family="Times,serif" font-size="14.00"> </text>
</g>
<!-- 95&#45;&gt;1 -->
<g id="edge47" class="edge">
<title>95&#45;&gt;1</title>
<path fill="none" stroke="black" d="M234.96,-144.05C223.85,-124.63 210.51,-92.8 227,-72 248.53,-44.83 343.2,-30.24 402.97,-23.6"/>
<polygon fill="black" stroke="black" points="403.41,-27.07 412.98,-22.52 402.66,-20.11 403.41,-27.07"/>
</g>
<!-- L12 -->
<g id="node32" class="node">
<title>L12</title>
<text text-anchor="middle" x="27" y="-14.3" font-family="Times,serif" font-size="14.00">12</text>
</g>
<!-- L11&#45;&gt;L12 -->
<!-- 91&#45;&gt;1 -->
<g id="edge42" class="edge">
<title>91&#45;&gt;1</title>
<path fill="none" stroke="black" stroke-dasharray="5,2" d="M345.81,-72.76C365.49,-61.67 393.14,-47 415.48,-35.79"/>
<polygon fill="black" stroke="black" points="417.3,-38.79 424.7,-31.21 414.19,-32.52 417.3,-38.79"/>
<text text-anchor="middle" x="338.81" y="-61.56" font-family="Times,serif" font-size="14.00">&#45;1</text>
</g>
<!-- 91&#45;&gt;1 -->
<g id="edge43" class="edge">
<title>91&#45;&gt;1</title>
<path fill="none" stroke="black" d="M356.02,-73.46C376.64,-63.17 402.4,-49.59 422.24,-38.56"/>
<polygon fill="black" stroke="black" points="424.18,-41.49 431.19,-33.54 420.75,-35.38 424.18,-41.49"/>
</g>
</g>
</svg>
